<svg width="24" height="24" viewBox="0 0 24 24" fill="none" xmlns="http://www.w3.org/2000/svg">
<path d="M22.9126 12.0813C22.9126 17.998 18.1162 22.7944 12.1995 22.7944C6.28276 22.7944 1.48633 17.998 1.48633 12.0813C1.48633 6.1646 6.28276 1.36816 12.1995 1.36816C18.1162 1.36816 22.9126 6.1646 22.9126 12.0813Z" fill="white"/>
<path d="M6.86133 8.35449H8.74097V16.1848H6.86133V8.35449Z" fill="black"/>
<path d="M18.1174 8.35449V16.1848H16.5743L12.5249 11.4307V16.1848H10.6685V8.35449H12.2232L16.261 13.1086V8.35449H18.1174Z" fill="black"/>
<path fill-rule="evenodd" clip-rule="evenodd" d="M7.59654 4.92871C8.27219 4.92871 8.82002 5.47655 8.82002 6.1522C8.82002 6.82785 8.27219 7.37569 7.59654 7.37569C6.9209 7.37569 6.37305 6.82785 6.37305 6.1522C6.37305 5.47655 6.9209 4.92871 7.59654 4.92871Z" fill="#FF0808"/>
<path fill-rule="evenodd" clip-rule="evenodd" d="M8.03382 21.2677C13.1522 23.4582 19.0773 21.0846 21.2677 15.9662C23.4582 10.8478 21.0846 4.92273 15.9662 2.73227C10.8478 0.541807 4.92273 2.91539 2.73227 8.03382C0.541807 13.1522 2.91539 19.0773 8.03382 21.2677ZM7.67325 22.1103C13.257 24.4998 19.7207 21.9105 22.1103 16.3267C24.4998 10.743 21.9105 4.27934 16.3267 1.88975C10.743 -0.499847 4.27934 2.08952 1.88975 7.67325C-0.499847 13.257 2.08952 19.7207 7.67325 22.1103Z" fill="black"/>
</svg>
